<svg width="116" height="92" viewBox="0 0 116 92" fill="none" xmlns="http://www.w3.org/2000/svg">
<path d="M113.886 58.2147C113.544 57.2607 113.143 56.3293 112.684 55.4258L91.4014 7.00702C91.2 6.54068 90.9117 6.11694 90.5519 5.75843C89.0313 4.23747 87.226 3.03096 85.239 2.20781C83.2521 1.38465 81.1224 0.960979 78.9717 0.960979C76.821 0.960979 74.6914 1.38465 72.7044 2.20781C70.7175 3.03096 68.9121 4.23747 67.3915 5.75843C66.6265 6.5243 66.1959 7.56201 66.1941 8.64452V21.4375H49.8191V8.64452C49.8195 8.10676 49.714 7.57419 49.5085 7.07723C49.3031 6.58027 49.0017 6.12866 48.6217 5.74819C47.1011 4.22724 45.2957 3.02073 43.3088 2.19757C41.3218 1.37442 39.1922 0.950745 37.0415 0.950745C34.8908 0.950745 32.7611 1.37442 30.7742 2.19757C28.7872 3.02073 26.9819 4.22724 25.4613 5.74819C25.1015 6.10671 24.8132 6.53045 24.6118 6.99679L3.32945 55.4156C2.87037 56.319 2.46873 57.2505 2.12691 58.2045C0.921808 61.5764 0.468523 65.171 0.798803 68.7365C1.12908 72.302 2.23494 75.7522 4.03891 78.8453C5.84289 81.9385 8.30134 84.5998 11.2421 86.6429C14.1828 88.686 17.5346 90.0614 21.0628 90.6728C24.591 91.2841 28.2102 91.1167 31.6669 90.1822C35.1236 89.2477 38.3341 87.5687 41.0737 85.2628C43.8132 82.957 46.0154 80.0801 47.5261 76.8336C49.0368 73.5871 49.8194 70.0495 49.8191 66.4687V29.625H66.1941V66.4687C66.1923 70.0499 66.9736 73.5882 68.4833 76.8357C69.993 80.0831 72.1945 82.9612 74.9336 85.2681C77.6728 87.5751 80.8833 89.2552 84.3401 90.1908C87.797 91.1263 91.4166 91.2946 94.9453 90.6839C98.4741 90.0731 101.827 88.6982 104.768 86.6553C107.709 84.6125 110.168 81.9511 111.973 78.8578C113.777 75.7644 114.884 72.3139 115.214 68.748C115.545 65.1821 115.092 61.587 113.886 58.2147ZM31.7605 11.0752C33.1254 9.92598 34.8283 9.25408 36.6101 9.16171C38.392 9.06933 40.1552 9.56155 41.6316 10.5635V48.1799C38.4354 45.3099 34.5411 43.3303 30.3389 42.4394C26.1367 41.5485 21.7741 41.7776 17.6883 43.1037L31.7605 11.0752ZM25.2566 82.8437C22.0179 82.8437 18.852 81.8834 16.1591 80.0841C13.4663 78.2848 11.3675 75.7273 10.1281 72.7352C8.88868 69.743 8.5644 66.4506 9.19624 63.2741C9.82807 60.0977 11.3876 57.18 13.6777 54.8899C15.9678 52.5998 18.8856 51.0402 22.062 50.4084C25.2384 49.7766 28.5309 50.1008 31.523 51.3402C34.5152 52.5796 37.0726 54.6784 38.8719 57.3713C40.6712 60.0641 41.6316 63.2301 41.6316 66.4687C41.6316 70.8117 39.9064 74.9767 36.8355 78.0476C33.7646 81.1185 29.5995 82.8437 25.2566 82.8437ZM74.3816 10.5584C75.858 9.55644 77.6212 9.06422 79.4031 9.15659C81.1849 9.24896 82.8878 9.92086 84.2526 11.0701L98.3249 43.0934C94.2387 41.768 89.8758 41.5397 85.6736 42.4316C81.4713 43.3234 77.5773 45.304 74.3816 48.1748V10.5584ZM90.7566 82.8437C87.5179 82.8437 84.352 81.8834 81.6591 80.0841C78.9663 78.2848 76.8674 75.7273 75.6281 72.7352C74.3887 69.743 74.0644 66.4506 74.6962 63.2741C75.3281 60.0977 76.8876 57.18 79.1777 54.8899C81.4678 52.5998 84.3856 51.0402 87.562 50.4084C90.7384 49.7766 94.0309 50.1008 97.023 51.3402C100.015 52.5796 102.573 54.6784 104.372 57.3713C106.171 60.0641 107.132 63.2301 107.132 66.4687C107.132 70.8117 105.406 74.9767 102.335 78.0476C99.2646 81.1185 95.0995 82.8437 90.7566 82.8437Z" fill="#141414"/>
</svg>
