<svg width="116" height="116" viewBox="0 0 116 116" fill="none" xmlns="http://www.w3.org/2000/svg">
<path d="M111.225 53.9062H106.958C105.975 42.3386 100.934 31.4909 92.7247 23.2819C84.5157 15.0729 73.668 10.0313 62.1003 9.04898V4.78125C62.1003 3.69552 61.669 2.65426 60.9013 1.88653C60.1336 1.1188 59.0923 0.6875 58.0066 0.6875C56.9209 0.6875 55.8796 1.1188 55.1119 1.88653C54.3441 2.65426 53.9128 3.69552 53.9128 4.78125V9.04898C42.3451 10.0313 31.4975 15.0729 23.2885 23.2819C15.0795 31.4909 10.0379 42.3386 9.05558 53.9062H4.78784C3.70211 53.9062 2.66085 54.3376 1.89312 55.1053C1.1254 55.873 0.694092 56.9143 0.694092 58C0.694092 59.0857 1.1254 60.127 1.89312 60.8947C2.66085 61.6624 3.70211 62.0938 4.78784 62.0938H9.05558C10.0379 73.6614 15.0795 84.5091 23.2885 92.7181C31.4975 100.927 42.3451 105.969 53.9128 106.951V111.219C53.9128 112.304 54.3441 113.346 55.1119 114.113C55.8796 114.881 56.9209 115.312 58.0066 115.312C59.0923 115.312 60.1336 114.881 60.9013 114.113C61.669 113.346 62.1003 112.304 62.1003 111.219V106.951C73.668 105.969 84.5157 100.927 92.7247 92.7181C100.934 84.5091 105.975 73.6614 106.958 62.0938H111.225C112.311 62.0938 113.352 61.6624 114.12 60.8947C114.888 60.127 115.319 59.0857 115.319 58C115.319 56.9143 114.888 55.873 114.12 55.1053C113.352 54.3376 112.311 53.9062 111.225 53.9062ZM62.1003 98.7328V94.8438C62.1003 93.758 61.669 92.7168 60.9013 91.949C60.1336 91.1813 59.0923 90.75 58.0066 90.75C56.9209 90.75 55.8796 91.1813 55.1119 91.949C54.3441 92.7168 53.9128 93.758 53.9128 94.8438V98.7328C44.5222 97.7746 35.7494 93.6066 29.0747 86.9319C22.4 80.2572 18.232 71.4844 17.2738 62.0938H21.1628C22.2486 62.0938 23.2898 61.6624 24.0576 60.8947C24.8253 60.127 25.2566 59.0857 25.2566 58C25.2566 56.9143 24.8253 55.873 24.0576 55.1053C23.2898 54.3376 22.2486 53.9062 21.1628 53.9062H17.2738C18.232 44.5156 22.4 35.7428 29.0747 29.0681C35.7494 22.3934 44.5222 18.2254 53.9128 17.2672V21.1562C53.9128 22.242 54.3441 23.2832 55.1119 24.051C55.8796 24.8187 56.9209 25.25 58.0066 25.25C59.0923 25.25 60.1336 24.8187 60.9013 24.051C61.669 23.2832 62.1003 22.242 62.1003 21.1562V17.2672C71.491 18.2254 80.2638 22.3934 86.9385 29.0681C93.6132 35.7428 97.7812 44.5156 98.7394 53.9062H94.8503C93.7646 53.9062 92.7234 54.3376 91.9556 55.1053C91.1879 55.873 90.7566 56.9143 90.7566 58C90.7566 59.0857 91.1879 60.127 91.9556 60.8947C92.7234 61.6624 93.7646 62.0938 94.8503 62.0938H98.7394C97.7812 71.4844 93.6132 80.2572 86.9385 86.9319C80.2638 93.6066 71.491 97.7746 62.1003 98.7328ZM58.0066 37.5312C53.9583 37.5312 50.0008 38.7317 46.6348 40.9809C43.2687 43.23 40.6452 46.4268 39.0959 50.167C37.5467 53.9071 37.1413 58.0227 37.9311 61.9933C38.7209 65.9638 40.6704 69.611 43.533 72.4736C46.3956 75.3362 50.0428 77.2857 54.0133 78.0754C57.9839 78.8652 62.0995 78.4599 65.8396 76.9107C69.5798 75.3614 72.7766 72.7379 75.0257 69.3718C77.2749 66.0058 78.4753 62.0483 78.4753 58C78.4753 52.5714 76.3188 47.365 72.4802 43.5264C68.6415 39.6878 63.4352 37.5312 58.0066 37.5312ZM58.0066 70.2812C55.5776 70.2812 53.2031 69.561 51.1835 68.2115C49.1639 66.862 47.5897 64.9439 46.6602 62.6998C45.7307 60.4557 45.4874 57.9864 45.9613 55.604C46.4352 53.2217 47.6049 51.0334 49.3224 49.3158C51.04 47.5983 53.2283 46.4286 55.6106 45.9547C57.993 45.4809 60.4623 45.7241 62.7064 46.6536C64.9505 47.5831 66.8686 49.1573 68.2181 51.1769C69.5676 53.1965 70.2878 55.571 70.2878 58C70.2878 61.2572 68.9939 64.381 66.6908 66.6842C64.3876 68.9873 61.2638 70.2812 58.0066 70.2812Z" fill="#141414"/>
</svg>
