<svg width="27" height="20" viewBox="0 0 27 20" fill="none" xmlns="http://www.w3.org/2000/svg">
<path d="M25.5066 0H1.50659C1.24138 0 0.987021 0.105357 0.799485 0.292893C0.611949 0.48043 0.506592 0.734784 0.506592 1V18C0.506592 18.5304 0.717305 19.0391 1.09238 19.4142C1.46745 19.7893 1.97616 20 2.50659 20H24.5066C25.037 20 25.5457 19.7893 25.9208 19.4142C26.2959 19.0391 26.5066 18.5304 26.5066 18V1C26.5066 0.734784 26.4012 0.48043 26.2137 0.292893C26.0262 0.105357 25.7718 0 25.5066 0ZM22.9353 2L13.5066 10.6437L4.07784 2H22.9353ZM24.5066 18H2.50659V3.27375L12.8303 12.7375C13.0148 12.9069 13.2562 13.0008 13.5066 13.0008C13.757 13.0008 13.9984 12.9069 14.1828 12.7375L24.5066 3.27375V18Z" fill="#E9E41D"/>
</svg>
