<svg width="209" height="85" viewBox="0 0 209 85" fill="none" xmlns="http://www.w3.org/2000/svg">
<rect width="208.769" height="84.3654" transform="translate(0.0634766 0.00195312)" fill="#E9E41D"/>
<path d="M30.4332 35.2154L28.0426 42.9468H36.0283L33.6376 35.2154C33.502 34.9102 33.3494 34.6898 33.1799 34.5542C33.0442 34.4186 32.8747 34.3507 32.6712 34.3507H31.3996C31.1961 34.3507 31.0096 34.4186 30.8401 34.5542C30.7045 34.6898 30.5688 34.9102 30.4332 35.2154ZM27.5339 59.3251C27.5339 59.9694 27.3813 60.4441 27.0761 60.7493C26.8049 61.0206 26.3471 61.1562 25.7028 61.1562H18.2257C17.5815 61.1562 17.1067 61.0206 16.8015 60.7493C16.5303 60.4441 16.3946 59.9694 16.3946 59.3251V45.8969C16.3946 44.8797 16.5472 43.7098 16.8524 42.3873C17.1915 41.0648 17.7001 39.5219 18.3783 37.7587L22.8035 26.2124C23.007 25.636 23.3122 25.2121 23.7191 24.9408C24.1599 24.6696 24.7194 24.5339 25.3976 24.5339H39.0801C39.7244 24.5339 40.25 24.6696 40.6569 24.9408C41.0977 25.2121 41.4199 25.636 41.6233 26.2124L46.0485 37.7587C46.7267 39.5219 47.2184 41.0648 47.5236 42.3873C47.8627 43.7098 48.0322 44.8797 48.0322 45.8969V59.3251C48.0322 59.9694 47.8797 60.4441 47.5745 60.7493C47.3032 61.0206 46.8454 61.1562 46.2011 61.1562H38.5206C37.8424 61.1562 37.3338 61.0206 36.9947 60.7493C36.6895 60.4441 36.5369 59.9694 36.5369 59.3251V52.2041H27.5339V59.3251ZM82.0335 61.1562H56.1435C55.4992 61.1562 55.0245 61.0206 54.7193 60.7493C54.448 60.4441 54.3124 59.9694 54.3124 59.3251V26.365C54.3124 25.7208 54.448 25.263 54.7193 24.9917C55.0245 24.6865 55.4992 24.5339 56.1435 24.5339H64.0275C64.6718 24.5339 65.1296 24.6865 65.4008 24.9917C65.706 25.263 65.8586 25.7208 65.8586 26.365V51.5429H72.827V43.3029C72.827 42.6586 72.9627 42.2008 73.2339 41.9295C73.5391 41.6243 74.0139 41.4717 74.6581 41.4717H82.0335C82.6777 41.4717 83.1355 41.6243 83.4068 41.9295C83.712 42.2008 83.8646 42.6586 83.8646 43.3029V59.3251C83.8646 59.9694 83.712 60.4441 83.4068 60.7493C83.1355 61.0206 82.6777 61.1562 82.0335 61.1562ZM99.3941 61.1562H91.5101C90.8658 61.1562 90.3911 61.0206 90.0859 60.7493C89.8147 60.4441 89.679 59.9694 89.679 59.3251V26.365C89.679 25.7208 89.8147 25.263 90.0859 24.9917C90.3911 24.6865 90.8658 24.5339 91.5101 24.5339H107.075C111.686 24.5339 114.84 25.4495 116.535 27.2806C118.231 29.1117 119.079 31.5023 119.079 34.4525V40.9631C119.079 43.9132 118.231 46.3039 116.535 48.135C114.84 49.9661 111.686 50.8817 107.075 50.8817H101.225V59.3251C101.225 59.9694 101.073 60.4441 100.767 60.7493C100.496 61.0206 100.038 61.1562 99.3941 61.1562ZM101.123 34.0456V41.7261H105.701C106.685 41.7261 107.329 41.4717 107.634 40.9631C107.939 40.4545 108.092 39.878 108.092 39.2337V36.5379C108.092 35.8936 107.939 35.3172 107.634 34.8085C107.329 34.2999 106.685 34.0456 105.701 34.0456H101.123ZM134.065 61.1562H126.181C125.537 61.1562 125.062 61.0206 124.757 60.7493C124.486 60.4441 124.35 59.9694 124.35 59.3251V26.365C124.35 25.7208 124.486 25.263 124.757 24.9917C125.062 24.6865 125.537 24.5339 126.181 24.5339H134.065C134.71 24.5339 135.167 24.6865 135.439 24.9917C135.744 25.263 135.896 25.7208 135.896 26.365V37.4026H144.391V26.365C144.391 25.7208 144.526 25.263 144.798 24.9917C145.103 24.6865 145.578 24.5339 146.222 24.5339H154.106C154.75 24.5339 155.208 24.6865 155.479 24.9917C155.784 25.263 155.937 25.7208 155.937 26.365V59.3251C155.937 59.9694 155.784 60.4441 155.479 60.7493C155.208 61.0206 154.75 61.1562 154.106 61.1562H146.222C145.578 61.1562 145.103 61.0206 144.798 60.7493C144.526 60.4441 144.391 59.9694 144.391 59.3251V48.0332H135.896V59.3251C135.896 59.9694 135.744 60.4441 135.439 60.7493C135.167 61.0206 134.71 61.1562 134.065 61.1562ZM176.221 35.2154L173.83 42.9468H181.816L179.426 35.2154C179.29 34.9102 179.137 34.6898 178.968 34.5542C178.832 34.4186 178.663 34.3507 178.459 34.3507H177.188C176.984 34.3507 176.798 34.4186 176.628 34.5542C176.492 34.6898 176.357 34.9102 176.221 35.2154ZM173.322 59.3251C173.322 59.9694 173.169 60.4441 172.864 60.7493C172.593 61.0206 172.135 61.1562 171.491 61.1562H164.014C163.369 61.1562 162.895 61.0206 162.589 60.7493C162.318 60.4441 162.183 59.9694 162.183 59.3251V45.8969C162.183 44.8797 162.335 43.7098 162.64 42.3873C162.979 41.0648 163.488 39.5219 164.166 37.7587L168.591 26.2124C168.795 25.636 169.1 25.2121 169.507 24.9408C169.948 24.6696 170.507 24.5339 171.186 24.5339H184.868C185.512 24.5339 186.038 24.6696 186.445 24.9408C186.886 25.2121 187.208 25.636 187.411 26.2124L191.836 37.7587C192.515 39.5219 193.006 41.0648 193.312 42.3873C193.651 43.7098 193.82 44.8797 193.82 45.8969V59.3251C193.82 59.9694 193.668 60.4441 193.362 60.7493C193.091 61.0206 192.633 61.1562 191.989 61.1562H184.309C183.63 61.1562 183.122 61.0206 182.783 60.7493C182.477 60.4441 182.325 59.9694 182.325 59.3251V52.2041H173.322V59.3251Z" fill="#141414"/>
</svg>
