<svg width="23" height="28" viewBox="0 0 23 28" fill="none" xmlns="http://www.w3.org/2000/svg">
<path d="M11.5066 6C10.5177 6 9.55099 6.29325 8.72874 6.84265C7.9065 7.39206 7.26563 8.17295 6.88719 9.08658C6.50876 10.0002 6.40974 11.0055 6.60266 11.9755C6.79559 12.9454 7.2718 13.8363 7.97106 14.5355C8.67032 15.2348 9.56124 15.711 10.5311 15.9039C11.501 16.0969 12.5064 15.9978 13.42 15.6194C14.3336 15.241 15.1145 14.6001 15.6639 13.7779C16.2133 12.9556 16.5066 11.9889 16.5066 11C16.5066 9.67392 15.9798 8.40215 15.0421 7.46447C14.1044 6.52678 12.8327 6 11.5066 6ZM11.5066 14C10.9132 14 10.3332 13.8241 9.83988 13.4944C9.34653 13.1648 8.96202 12.6962 8.73495 12.1481C8.50789 11.5999 8.44848 10.9967 8.56424 10.4147C8.67999 9.83279 8.96571 9.29824 9.38527 8.87868C9.80483 8.45912 10.3394 8.1734 10.9213 8.05764C11.5033 7.94189 12.1065 8.0013 12.6546 8.22836C13.2028 8.45542 13.6714 8.83994 14.001 9.33329C14.3306 9.82664 14.5066 10.4067 14.5066 11C14.5066 11.7956 14.1905 12.5587 13.6279 13.1213C13.0653 13.6839 12.3022 14 11.5066 14ZM11.5066 0C8.59023 0.00330842 5.79425 1.1633 3.73207 3.22548C1.66989 5.28766 0.5099 8.08363 0.506592 11C0.506592 14.925 2.32034 19.085 5.75659 23.0312C7.30062 24.8145 9.03841 26.4202 10.9378 27.8188C11.106 27.9365 11.3063 27.9997 11.5116 27.9997C11.7169 27.9997 11.9172 27.9365 12.0853 27.8188C13.9813 26.4196 15.7157 24.8139 17.2566 23.0312C20.6878 19.085 22.5066 14.925 22.5066 11C22.5033 8.08363 21.3433 5.28766 19.2811 3.22548C17.2189 1.1633 14.423 0.00330842 11.5066 0ZM11.5066 25.75C9.44034 24.125 2.50659 18.1562 2.50659 11C2.50659 8.61305 3.4548 6.32387 5.14263 4.63604C6.83046 2.94821 9.11964 2 11.5066 2C13.8935 2 16.1827 2.94821 17.8706 4.63604C19.5584 6.32387 20.5066 8.61305 20.5066 11C20.5066 18.1537 13.5728 24.125 11.5066 25.75Z" fill="#E9E41D"/>
</svg>
