<svg width="26" height="25" viewBox="0 0 26 25" fill="none" xmlns="http://www.w3.org/2000/svg">
<path d="M24.3029 16.8075L18.4141 14.1687L18.3979 14.1612C18.0921 14.0305 17.7587 13.978 17.4276 14.0086C17.0965 14.0391 16.7782 14.1517 16.5016 14.3362C16.469 14.3578 16.4377 14.3811 16.4079 14.4062L13.3654 17C11.4379 16.0637 9.44785 14.0887 8.5116 12.1862L11.1091 9.09749C11.1341 9.06624 11.1579 9.03499 11.1804 9.00124C11.3609 8.72537 11.4704 8.40914 11.4992 8.08071C11.528 7.75227 11.4751 7.42181 11.3454 7.11874V7.10374L8.6991 1.20499C8.52753 0.809072 8.23251 0.47926 7.85809 0.264789C7.48366 0.0503186 7.04992 -0.0373076 6.6216 0.0149912C4.92782 0.237875 3.37308 1.0697 2.24777 2.35511C1.12246 3.64052 0.503541 5.2916 0.506603 6.99999C0.506603 16.925 8.5816 25 18.5066 25C20.215 25.0031 21.8661 24.3841 23.1515 23.2588C24.4369 22.1335 25.2687 20.5788 25.4916 18.885C25.544 18.4568 25.4566 18.0232 25.2423 17.6488C25.0281 17.2744 24.6985 16.9793 24.3029 16.8075ZM18.5066 23C14.2646 22.9954 10.1976 21.3082 7.19801 18.3086C4.19843 15.309 2.51124 11.242 2.5066 6.99999C2.5019 5.77935 2.94167 4.59874 3.74377 3.67862C4.54588 2.75851 5.65548 2.16182 6.86535 1.99999C6.86486 2.00498 6.86486 2.01 6.86535 2.01499L9.49035 7.88999L6.9066 10.9825C6.88038 11.0127 6.85656 11.0448 6.83535 11.0787C6.64725 11.3674 6.5369 11.6997 6.515 12.0436C6.4931 12.3874 6.56039 12.7311 6.71035 13.0412C7.84285 15.3575 10.1766 17.6737 12.5179 18.805C12.8303 18.9536 13.176 19.0185 13.521 18.9935C13.8661 18.9686 14.1988 18.8545 14.4866 18.6625C14.5187 18.6409 14.5496 18.6175 14.5791 18.5925L17.6179 16L23.4929 18.6312C23.4929 18.6312 23.5029 18.6312 23.5066 18.6312C23.3467 19.8428 22.7509 20.9547 21.8307 21.7588C20.9104 22.5628 19.7287 23.0041 18.5066 23Z" fill="#E9E41D"/>
</svg>
