<svg width="124" height="91" viewBox="0 0 124 91" fill="none" xmlns="http://www.w3.org/2000/svg">
<path d="M121.775 52.4625C121.345 52.785 120.856 53.0197 120.335 53.1532C119.814 53.2866 119.272 53.3161 118.74 53.2401C118.208 53.1641 117.696 52.9839 117.233 52.71C116.771 52.4361 116.367 52.0738 116.044 51.6437C113.577 48.3271 110.365 45.6361 106.668 43.7874C102.97 41.9387 98.8903 40.9839 94.7566 41C93.9515 40.9999 93.1644 40.7625 92.4936 40.3174C91.8228 39.8723 91.2981 39.2394 90.9852 38.4977C90.7727 37.994 90.6632 37.4529 90.6632 36.9062C90.6632 36.3596 90.7727 35.8184 90.9852 35.3148C91.2981 34.5731 91.8228 33.9401 92.4936 33.495C93.1644 33.05 93.9515 32.8126 94.7566 32.8125C97.0535 32.8123 99.3044 32.1679 101.253 30.9526C103.203 29.7373 104.772 27.9997 105.783 25.9372C106.794 23.8748 107.206 21.5701 106.973 19.285C106.74 16.9999 105.871 14.8259 104.464 13.0101C103.058 11.1943 101.17 9.80929 99.0156 9.01252C96.8613 8.21575 94.5266 8.03912 92.2769 8.50268C90.0272 8.96624 87.9526 10.0514 86.2888 11.6349C84.6249 13.2185 83.4385 15.2369 82.8642 17.4609C82.7298 17.9817 82.4941 18.4709 82.1707 18.9007C81.8472 19.3304 81.4423 19.6922 80.979 19.9654C80.5157 20.2386 80.0031 20.4179 79.4705 20.4931C78.9379 20.5682 78.3958 20.5377 77.875 20.4033C77.3542 20.2689 76.8649 20.0332 76.4352 19.7098C76.0055 19.3863 75.6437 18.9814 75.3705 18.5181C75.0972 18.0548 74.9179 17.5422 74.8428 17.0096C74.7677 16.477 74.7982 15.9348 74.9326 15.414C75.7296 12.33 77.2354 9.47451 79.3302 7.07482C81.425 4.67514 84.051 2.79747 86.9991 1.59124C89.9473 0.385003 93.1363 -0.116512 96.3124 0.126598C99.4885 0.369708 102.564 1.35073 105.294 2.99162C108.024 4.6325 110.334 6.88794 112.039 9.57849C113.744 12.269 114.798 15.3204 115.116 18.4899C115.435 21.6593 115.009 24.8593 113.873 27.8352C112.737 30.8112 110.922 33.4809 108.573 35.632C114.139 38.0422 118.979 41.8669 122.609 46.7261C122.932 47.1573 123.166 47.6479 123.299 48.1697C123.432 48.6916 123.46 49.2345 123.383 49.7673C123.305 50.3002 123.123 50.8125 122.847 51.275C122.572 51.7375 122.207 52.141 121.775 52.4625ZM94.2039 83.9844C94.5001 84.4503 94.699 84.9713 94.7886 85.5161C94.8782 86.0609 94.8567 86.6182 94.7253 87.1545C94.594 87.6908 94.3555 88.1949 94.0243 88.6366C93.693 89.0783 93.2758 89.4485 92.7978 89.7248C92.3198 90.0011 91.7908 90.1778 91.2428 90.2444C90.6947 90.311 90.1388 90.266 89.6085 90.1122C89.0783 89.9584 88.5846 89.6989 88.1572 89.3493C87.7299 88.9997 87.3776 88.5673 87.1217 88.0781C84.5429 83.7115 80.8701 80.0926 76.4658 77.5787C72.0615 75.0647 67.0778 73.7425 62.0066 73.7425C56.9353 73.7425 51.9516 75.0647 47.5473 77.5787C43.143 80.0926 39.4702 83.7115 36.8914 88.0781C36.6355 88.5673 36.2832 88.9997 35.8559 89.3493C35.4285 89.6989 34.9349 89.9584 34.4046 90.1122C33.8743 90.266 33.3184 90.311 32.7704 90.2444C32.2223 90.1778 31.6933 90.0011 31.2153 89.7248C30.7373 89.4485 30.3201 89.0783 29.9889 88.6366C29.6576 88.1949 29.4191 87.6908 29.2878 87.1545C29.1564 86.6182 29.1349 86.0609 29.2245 85.5161C29.3141 84.9713 29.513 84.4503 29.8092 83.9844C33.7781 77.1651 39.8297 71.7987 47.0746 68.6737C42.9979 65.5524 40.0018 61.2321 38.5074 56.32C37.0131 51.4078 37.0956 46.1509 38.7434 41.2881C40.3912 36.4253 43.5215 32.2011 47.6941 29.2093C51.8668 26.2176 56.8722 24.6086 62.0066 24.6086C67.141 24.6086 72.1463 26.2176 76.319 29.2093C80.4917 32.2011 83.6219 36.4253 85.2697 41.2881C86.9175 46.1509 87.0001 51.4078 85.5057 56.32C84.0113 61.2321 81.0152 65.5524 76.9385 68.6737C84.1835 71.7987 90.235 77.1651 94.2039 83.9844ZM62.0066 65.5625C65.2452 65.5625 68.4112 64.6021 71.104 62.8028C73.7969 61.0035 75.8957 58.4461 77.1351 55.4539C78.3745 52.4618 78.6988 49.1693 78.0669 45.9929C77.4351 42.8164 75.8755 39.8987 73.5854 37.6086C71.2953 35.3185 68.3776 33.759 65.2012 33.1271C62.0247 32.4953 58.7323 32.8196 55.7401 34.0589C52.748 35.2983 50.1906 37.3972 48.3912 40.09C46.5919 42.7829 45.6316 45.9488 45.6316 49.1875C45.6316 53.5304 47.3568 57.6954 50.4277 60.7663C53.4986 63.8373 57.6636 65.5625 62.0066 65.5625ZM33.3503 36.9062C33.3503 35.8205 32.919 34.7792 32.1513 34.0115C31.3835 33.2438 30.3423 32.8125 29.2566 32.8125C26.9596 32.8123 24.7087 32.1679 22.7596 30.9526C20.8105 29.7373 19.2413 27.9997 18.2302 25.9372C17.2191 23.8748 16.8067 21.5701 17.0398 19.285C17.2729 16.9999 18.1421 14.8259 19.5488 13.0101C20.9555 11.1943 22.8432 9.80929 24.9975 9.01252C27.1519 8.21575 29.4865 8.03912 31.7362 8.50268C33.9859 8.96624 36.0605 10.0514 37.7244 11.6349C39.3882 13.2185 40.5747 15.2369 41.1489 17.4609C41.4203 18.5127 42.0985 19.4136 43.0341 19.9654C43.9698 20.5172 45.0864 20.6747 46.1382 20.4033C47.19 20.1319 48.0909 19.4537 48.6427 18.5181C49.1945 17.5824 49.352 16.4658 49.0805 15.414C48.2835 12.33 46.7777 9.47451 44.6829 7.07482C42.5881 4.67514 39.9621 2.79747 37.014 1.59124C34.0658 0.385003 30.8768 -0.116512 27.7007 0.126598C24.5246 0.369708 21.4491 1.35073 18.7189 2.99162C15.9886 4.6325 13.679 6.88794 11.9739 9.57849C10.2687 12.269 9.21501 15.3204 8.89664 18.4899C8.57828 21.6593 9.00402 24.8593 10.14 27.8352C11.276 30.8112 13.0908 33.4809 15.4402 35.632C9.87922 38.0445 5.04568 41.869 1.41906 46.7261C0.766941 47.5947 0.486577 48.6868 0.639642 49.7621C0.792708 50.8374 1.36666 51.8078 2.23525 52.4599C3.10383 53.112 4.19589 53.3924 5.27119 53.2393C6.34649 53.0863 7.31694 52.5123 7.96906 51.6437C10.4365 48.3271 13.6482 45.6361 17.3456 43.7874C21.043 41.9387 25.1228 40.9839 29.2566 41C30.3423 41 31.3835 40.5687 32.1513 39.8009C32.919 39.0332 33.3503 37.992 33.3503 36.9062Z" fill="#141414"/>
</svg>
